<svg xmlns="http://www.w3.org/2000/svg" width="16" height="18" viewBox="0 0 16 18">
    <g fill="none" fill-rule="evenodd">
        <path fill="#888" d="M9.975.02l.587.158.586.157c.325.087.517.42.43.744-.087.324-.42.516-.743.43l-.186.694c1.483.55 2.756 1.533 3.666 2.795l.728-.42c.146-.084.331-.034.415.11l.304.527c.084.145.034.331-.111.415l-.703.406c.545 1.073.853 2.288.853 3.575 0 4.361-3.536 7.897-7.898 7.897l-.005-.002C3.536 17.508 0 13.972 0 9.611 0 6.622 1.66 4.02 4.108 2.68l-.313-.54c-.084-.145-.034-.33.112-.415l.526-.304c.145-.083.33-.034.415.112l.372.645c.836-.301 1.738-.465 2.678-.465l-.001.01.006-.01c.54 0 1.067.054 1.577.157l.18-.675c-.324-.087-.516-.42-.43-.745.088-.324.42-.516.745-.43z"/>
        <path fill="#C9C9C9" d="M7.903 2.32c4.026 0 7.29 3.264 7.29 7.29 0 4.027-3.264 7.29-7.29 7.29l-.005-.007C3.872 16.9.608 13.637.608 9.61c0-4.027 3.264-7.29 7.29-7.29v.007z"/>
        <path fill="#FFF" d="M7.903 2.928c3.69 0 6.683 2.992 6.683 6.683 0 3.69-2.992 6.682-6.683 6.682l-.005-.01v.01c-3.69 0-6.683-2.992-6.683-6.682 0-3.691 2.992-6.683 6.683-6.683v.014z"/>
        <path fill="#F61" d="M7.903 2.899c6.581.376 8.086 7.145 5.535 10.423l-5.54-3.737v-.003l-.005.003-5.54-3.737C3.642 3.937 5.746 2.905 7.89 2.902l.013.011z"/>
        <path fill="#B2B2B2" d="M10.333 4.447H11.333V5.447H10.333z" transform="rotate(30 10.637 4.902)"/>
        <path fill="#B2B2B2" d="M13.067 9.182H14.067V10.182H13.067z" transform="rotate(90 13.37 9.637)"/>
        <path fill="#B2B2B2" d="M10.333 13.917H11.333V14.917H10.333z" transform="rotate(150 10.637 14.373)"/>
        <path fill="#B2B2B2" d="M4.86 13.917H5.86V14.917H4.86z" transform="rotate(-150 5.164 14.373)"/>
        <path fill="#B2B2B2" d="M2.126 9.182H3.126V10.182H2.126z" transform="rotate(-90 2.43 9.637)"/>
        <path fill="#B2B2B2" d="M4.86 4.447H5.86V5.447H4.86z" transform="rotate(-30 5.164 4.902)"/>
        <path fill="#333" d="M10.485 6.573L8.68 9.137c.085.138.133.3.133.474 0 .503-.408.91-.911.91l-.006-.008c-.502.009-.91-.4-.91-.902 0-.468.351-.853.805-.906l.106-.006v.007l.005-.007c.12 0 .234.023.339.065l2.243-2.191z"/>
    </g>
</svg>
