<svg xmlns="http://www.w3.org/2000/svg" width="13" height="12" viewBox="0 0 13 12">
    <path fill="#FF6000" fill-rule="evenodd" stroke="#FF6000" stroke-linejoin="round" stroke-width=".9" d="M6.865 5.718c1.66-.43 3.417.709 3.925 2.544s-1.042 2.051-2.775 1.61c-1.272 1.22-2.726 1.784-3.234-.052-.508-1.835.425-3.671 2.084-4.102zm-5.578-.317c.347-.194.872.057 1.172.56.301.504.263 1.07-.084 1.264-.347.194-.872-.058-1.172-.561-.3-.504-.263-1.07.084-1.263zm9.988-2.59c.4 0 .725.472.725 1.053 0 .582-.325 1.053-.725 1.053-.401 0-.726-.471-.726-1.053 0-.581.325-1.053.726-1.053zm-7.812-.64c.44-.209 1.06.141 1.383.782.323.64.227 1.328-.215 1.536-.44.209-1.06-.142-1.383-.782-.323-.64-.227-1.328.215-1.537zM7.97 1c.49-.033.929.517.98 1.227.051.711-.304 1.314-.794 1.347-.49.033-.928-.516-.98-1.227-.05-.71.305-1.313.794-1.347z"/>
</svg>
