<svg xmlns="http://www.w3.org/2000/svg" width="20" height="20" viewBox="0 0 20 20">
    <g fill="none" fill-rule="evenodd">
        <g transform="translate(.5 .5) rotate(-12 11.007 1.114)">
            <rect width="11" height="15.5" fill="#E65A5B" rx=".913"/>
            <path fill="#ED3E3F" d="M.002 1.005c.003.587.009 1.083.017 1.488C.97 4.563 3.065 6 5.5 6 7.95 6 10.06 4.54 11 2.444L10.997 1c0-.552-.448-.999-1-.999H1.002c-.552 0-1 .448-1 1v.005z"/>
            <circle cx="5.5" cy="6" r="2" fill="#FFD578"/>
        </g>
        <g transform="translate(.5 .5) rotate(3 -48.033 152.457)">
            <rect width="11" height="15.5" fill="#FF6465" rx=".913"/>
            <path fill="#FF2828" d="M.002 1.005c.003.587.009 1.083.017 1.488C.97 4.563 3.065 6 5.5 6 7.95 6 10.06 4.54 11 2.444L10.997 1c0-.552-.448-.999-1-.999H1.002c-.552 0-1 .448-1 1v.005z"/>
            <circle cx="5.5" cy="6" r="2" fill="#FFDF97"/>
        </g>
    </g>
</svg>
