<svg xmlns="http://www.w3.org/2000/svg" width="20" height="20" viewBox="0 0 20 20">
    <g fill="none">
        <path fill="#A5EB78" d="M15.294.074L7.95 10.183c-.198.272-.58.333-.852.135L2.746 7.156.248 10.595l6.564 4.769c.424.308.944.447 1.462.395l.12-.015c.556-.088 1.055-.394 1.387-.85l8.952-12.322L15.294.074z" transform="translate(.5 2)"/>
        <path fill="#000" d="M17.596 1.746L8.145 14.754c-.262.36-.619.634-1.026.795.392.194.837.264 1.275.195.556-.089 1.055-.394 1.387-.85l8.952-12.322-1.137-.826z" opacity=".1" transform="translate(.5 2)"/>
    </g>
</svg>
