<svg xmlns="http://www.w3.org/2000/svg" width="20" height="20" viewBox="0 0 20 20">
    <g fill="none">
        <path fill="#BFC7D9" d="M12.886 0L6.886 0 6.886 14.695 17.391 14.695 17.391 3.894 15.139 1.947z" transform="translate(1.5)"/>
        <path fill="#000" d="M12.886 0L11.541 0 11.541 5.239 17.391 5.239 17.391 3.894 15.139 1.947z" opacity=".1" transform="translate(1.5)"/>
        <g fill="#C7CFE2">
            <path d="M15.242 0L12.886 0 12.886 3.894 17.391 3.894 17.391 2.149zM6.001 4.918L0 4.918 0 19.613 10.506 19.613 10.506 8.812 8.253 6.865z" transform="translate(1.5)"/>
        </g>
        <path fill="#000" d="M6.001 4.918L4.656 4.918 4.656 10.157 10.506 10.157 10.506 8.812 8.253 6.865z" opacity=".1" transform="translate(1.5)"/>
        <path fill="#DCE5FA" d="M8.356 4.918L6.001 4.918 6.001 8.812 10.506 8.812 10.506 7.067z" transform="translate(1.5)"/>
        <g fill="#515262">
            <path d="M6.338.708h-6C.151.708 0 .558 0 .372c0-.186.15-.336.336-.336h6c.186 0 .337.15.337.336 0 .186-.15.336-.336.336zM6.338 2.264h-6c-.186 0-.337-.15-.337-.337 0-.185.15-.336.336-.336h6c.186 0 .337.15.337.336 0 .186-.15.337-.336.337zM6.338 3.82h-6C.151 3.82 0 3.668 0 3.482c0-.186.15-.336.336-.336h6c.186 0 .337.15.337.336 0 .186-.15.336-.336.336zM6.338 6.72h-3C3.151 6.72 3 6.568 3 6.382c0-.186.15-.336.336-.336h3c.186 0 .337.15.337.336 0 .186-.15.336-.336.336z" transform="translate(1.5) translate(1.915 11.53)"/>
        </g>
    </g>
</svg>
